<?xml version="1.0" encoding="UTF-8"?>
<!DOCTYPE svg PUBLIC "-//W3C//DTD SVG 1.1//EN" "http://www.w3.org/Graphics/SVG/1.1/DTD/svg11.dtd">
<!-- Creator: CorelDRAW 2020 (64 Bit) -->
<svg xmlns="http://www.w3.org/2000/svg" xml:space="preserve" width="15mm" height="15mm" version="1.1" style="shape-rendering:geometricPrecision; text-rendering:geometricPrecision; image-rendering:optimizeQuality; fill-rule:evenodd; clip-rule:evenodd"
viewBox="0 0 1500 1500"
 xmlns:xlink="http://www.w3.org/1999/xlink"
 xmlns:xodm="http://www.corel.com/coreldraw/odm/2003">
 <defs>
  <style type="text/css">
   <![CDATA[
    .fil0 {fill:#373435;fill-rule:nonzero}
   ]]>
  </style>
 </defs>
 <g id="Camada_x0020_1">
  <metadata id="CorelCorpID_0Corel-Layer"/>
  <path class="fil0" d="M1116.78 1503.57l-254.29 0 -0.25 -0.08 0 -535.79 172.62 0 32.84 -214.16 -205.46 0 0 -138.96c0,-58.59 28.7,-115.7 120.71,-115.7l93.41 0 0 -182.34c0,0 -84.76,-14.48 -165.83,-14.48 -169.19,0 -279.83,102.57 -279.83,288.24l0 163.24 -188.11 0 0 214.16 188.11 0 0 535.87 -254.54 0c-209.7,0 -379.69,-169.99 -379.69,-379.69l0 -740.67c0,-209.71 169.99,-379.69 379.69,-379.69l740.62 0c209.71,0 379.69,169.98 379.69,379.69l0 740.67c0,209.7 -169.98,379.69 -379.69,379.69z"/>
 </g>
</svg>
